%
M48
M72
T01C0.02400
T02C0.02756
T03C0.04000
%
T01
X35100Y61600
X63100Y46600
T02
X79983Y26847
X72109Y26847
X64235Y26847
X56361Y26847
X48487Y26847
X40613Y26847
X32739Y26847
X24865Y26847
X24865Y81965
X32739Y81965
X40613Y81965
X48487Y81965
X56361Y81965
X64235Y81965
X72109Y81965
X79983Y81965
T03
X93100Y14100
X83100Y14100
X73100Y14100
X63100Y14100
X53100Y14100
X43100Y14100
X33100Y14100
X23100Y14100
X13100Y14100
X13100Y94100
X23100Y94100
X33100Y94100
X43100Y94100
X53100Y94100
X63100Y94100
X73100Y94100
X83100Y94100
X93100Y94100
X92600Y73100
X92600Y63100
X92600Y53100
X92600Y43100
M30
