G75*
%MOIN*%
%OFA0B0*%
%FSLAX25Y25*%
%IPPOS*%
%LPD*%
%AMOC8*
5,1,8,0,0,1.08239X$1,22.5*
%
%ADD10C,0.00000*%
%ADD11C,0.01100*%
%ADD12C,0.00500*%
%ADD13C,0.00600*%
%ADD14C,0.00800*%
%ADD15C,0.01000*%
D10*
X0007600Y0009100D02*
X0098301Y0009100D01*
X0098301Y0099561D01*
X0007600Y0099561D01*
X0007600Y0009100D01*
D11*
X0010297Y0039390D02*
X0011798Y0039390D01*
X0012549Y0040141D01*
X0012549Y0042393D01*
X0014050Y0042393D02*
X0009546Y0042393D01*
X0009546Y0040141D01*
X0010297Y0039390D01*
X0010297Y0044547D02*
X0009546Y0045297D01*
X0009546Y0046799D01*
X0010297Y0047549D01*
X0011047Y0047549D01*
X0011798Y0046799D01*
X0011798Y0045297D01*
X0012549Y0044547D01*
X0013299Y0044547D01*
X0014050Y0045297D01*
X0014050Y0046799D01*
X0013299Y0047549D01*
X0014050Y0049703D02*
X0014050Y0052706D01*
X0009546Y0052706D01*
X0009546Y0049703D01*
X0011798Y0051204D02*
X0011798Y0052706D01*
X0011798Y0054859D02*
X0011798Y0057862D01*
X0009546Y0059798D02*
X0009546Y0061300D01*
X0009546Y0060549D02*
X0014050Y0060549D01*
X0014050Y0061300D02*
X0014050Y0059798D01*
X0014050Y0063453D02*
X0009546Y0063453D01*
X0009546Y0066456D02*
X0014050Y0063453D01*
X0014050Y0066456D02*
X0009546Y0066456D01*
X0009546Y0068392D02*
X0009546Y0069894D01*
X0009546Y0069143D02*
X0014050Y0069143D01*
X0014050Y0069894D02*
X0014050Y0068392D01*
X0014050Y0072047D02*
X0009546Y0072047D01*
X0011047Y0073549D01*
X0009546Y0075050D01*
X0014050Y0075050D01*
D12*
X0017837Y0070402D02*
X0019088Y0069151D01*
X0017420Y0069151D01*
X0017837Y0067900D02*
X0017837Y0070402D01*
X0020182Y0069985D02*
X0020182Y0069151D01*
X0020599Y0068734D01*
X0021850Y0068734D01*
X0021850Y0067900D02*
X0021850Y0070402D01*
X0020599Y0070402D01*
X0020182Y0069985D01*
X0021016Y0068734D02*
X0020182Y0067900D01*
X0023250Y0064256D02*
X0024501Y0063005D01*
X0024084Y0062588D02*
X0025752Y0064256D01*
X0025752Y0062588D02*
X0023250Y0062588D01*
X0023667Y0061493D02*
X0023250Y0061076D01*
X0023250Y0060242D01*
X0023667Y0059825D01*
X0025335Y0061493D01*
X0023667Y0061493D01*
X0025335Y0061493D02*
X0025752Y0061076D01*
X0025752Y0060242D01*
X0025335Y0059825D01*
X0023667Y0059825D01*
X0023250Y0058731D02*
X0023250Y0057063D01*
X0023250Y0057897D02*
X0025752Y0057897D01*
X0024918Y0057063D01*
X0025157Y0055152D02*
X0026825Y0053484D01*
X0026408Y0053901D02*
X0025157Y0052650D01*
X0026825Y0052650D02*
X0026825Y0055152D01*
X0027920Y0054735D02*
X0029588Y0053067D01*
X0029171Y0052650D01*
X0028337Y0052650D01*
X0027920Y0053067D01*
X0027920Y0054735D01*
X0028337Y0055152D01*
X0029171Y0055152D01*
X0029588Y0054735D01*
X0029588Y0053067D01*
X0030682Y0052650D02*
X0032350Y0052650D01*
X0031516Y0052650D02*
X0031516Y0055152D01*
X0032350Y0054318D01*
X0035657Y0053650D02*
X0036908Y0054901D01*
X0037325Y0054484D02*
X0035657Y0056152D01*
X0037325Y0056152D02*
X0037325Y0053650D01*
X0038420Y0054067D02*
X0038837Y0053650D01*
X0039671Y0053650D01*
X0040088Y0054067D01*
X0038420Y0055735D01*
X0038420Y0054067D01*
X0040088Y0054067D02*
X0040088Y0055735D01*
X0039671Y0056152D01*
X0038837Y0056152D01*
X0038420Y0055735D01*
X0041182Y0053650D02*
X0042850Y0053650D01*
X0042016Y0053650D02*
X0042016Y0056152D01*
X0042850Y0055318D01*
X0041933Y0052602D02*
X0041099Y0052602D01*
X0040682Y0052185D01*
X0041933Y0052602D02*
X0042350Y0052185D01*
X0042350Y0050517D01*
X0041933Y0050100D01*
X0041099Y0050100D01*
X0040682Y0050517D01*
X0039588Y0051351D02*
X0037920Y0051351D01*
X0038337Y0050100D02*
X0038337Y0052602D01*
X0039588Y0051351D01*
X0035102Y0047980D02*
X0035102Y0046312D01*
X0033851Y0046312D01*
X0034268Y0047146D01*
X0034268Y0047563D01*
X0033851Y0047980D01*
X0033017Y0047980D01*
X0032600Y0047563D01*
X0032600Y0046729D01*
X0033017Y0046312D01*
X0032600Y0045218D02*
X0033434Y0044384D01*
X0033434Y0044801D02*
X0033434Y0043550D01*
X0032600Y0043550D02*
X0035102Y0043550D01*
X0035102Y0044801D01*
X0034685Y0045218D01*
X0033851Y0045218D01*
X0033434Y0044801D01*
X0026852Y0044729D02*
X0026852Y0045563D01*
X0026435Y0045980D01*
X0024767Y0044312D01*
X0024350Y0044729D01*
X0024350Y0045563D01*
X0024767Y0045980D01*
X0026435Y0045980D01*
X0026852Y0047075D02*
X0024350Y0047075D01*
X0025184Y0047075D02*
X0026852Y0048743D01*
X0025601Y0047492D02*
X0024350Y0048743D01*
X0022275Y0050200D02*
X0022275Y0052702D01*
X0021024Y0052702D01*
X0020607Y0052285D01*
X0020607Y0051451D01*
X0021024Y0051034D01*
X0022275Y0051034D01*
X0021441Y0051034D02*
X0020607Y0050200D01*
X0019512Y0050617D02*
X0019095Y0050200D01*
X0018261Y0050200D01*
X0017844Y0050617D01*
X0017844Y0051034D01*
X0018261Y0051451D01*
X0019512Y0051451D01*
X0019512Y0050617D01*
X0019512Y0051451D02*
X0018678Y0052285D01*
X0017844Y0052702D01*
X0024767Y0044312D02*
X0026435Y0044312D01*
X0026852Y0044729D01*
X0026852Y0042384D02*
X0024350Y0042384D01*
X0024350Y0041550D02*
X0024350Y0043218D01*
X0026018Y0041550D02*
X0026852Y0042384D01*
X0023003Y0038452D02*
X0023837Y0037618D01*
X0023003Y0038452D02*
X0023003Y0035950D01*
X0023837Y0035950D02*
X0022169Y0035950D01*
X0021075Y0036367D02*
X0019407Y0038035D01*
X0019407Y0036367D01*
X0019824Y0035950D01*
X0020658Y0035950D01*
X0021075Y0036367D01*
X0021075Y0038035D01*
X0020658Y0038452D01*
X0019824Y0038452D01*
X0019407Y0038035D01*
X0018312Y0038452D02*
X0018312Y0035950D01*
X0018312Y0036784D02*
X0016644Y0038452D01*
X0017895Y0037201D02*
X0016644Y0035950D01*
X0016850Y0021052D02*
X0015499Y0021052D01*
X0015048Y0020602D01*
X0015048Y0019701D01*
X0015499Y0019251D01*
X0016850Y0019251D01*
X0015949Y0019251D02*
X0015048Y0018350D01*
X0013903Y0018800D02*
X0013453Y0018350D01*
X0012552Y0018350D01*
X0012102Y0018800D01*
X0012102Y0019251D01*
X0012552Y0019701D01*
X0013453Y0019701D01*
X0013903Y0020152D01*
X0013903Y0020602D01*
X0013453Y0021052D01*
X0012552Y0021052D01*
X0012102Y0020602D01*
X0010957Y0021052D02*
X0009155Y0021052D01*
X0010056Y0021052D02*
X0010056Y0018350D01*
X0016850Y0018350D02*
X0016850Y0021052D01*
X0020602Y0020602D02*
X0020602Y0018800D01*
X0021052Y0018350D01*
X0021953Y0018350D01*
X0022403Y0018800D01*
X0020602Y0020602D01*
X0021052Y0021052D01*
X0021953Y0021052D01*
X0022403Y0020602D01*
X0022403Y0018800D01*
X0023548Y0018350D02*
X0023548Y0020152D01*
X0024449Y0021052D01*
X0025350Y0020152D01*
X0025350Y0018350D01*
X0025350Y0019701D02*
X0023548Y0019701D01*
X0031102Y0018350D02*
X0031102Y0021052D01*
X0032903Y0021052D02*
X0031102Y0018350D01*
X0032903Y0018350D02*
X0032903Y0021052D01*
X0034048Y0021052D02*
X0035850Y0021052D01*
X0035850Y0018350D01*
X0034048Y0018350D01*
X0034949Y0019701D02*
X0035850Y0019701D01*
X0040602Y0018800D02*
X0041052Y0018350D01*
X0041953Y0018350D01*
X0042403Y0018800D01*
X0040602Y0020602D01*
X0040602Y0018800D01*
X0040602Y0020602D02*
X0041052Y0021052D01*
X0041953Y0021052D01*
X0042403Y0020602D01*
X0042403Y0018800D01*
X0043548Y0018800D02*
X0043999Y0018350D01*
X0045350Y0018350D01*
X0045350Y0021052D01*
X0043999Y0021052D01*
X0043548Y0020602D01*
X0043548Y0018800D01*
X0051102Y0018800D02*
X0051552Y0018350D01*
X0052453Y0018350D01*
X0052903Y0018800D01*
X0052903Y0019701D02*
X0052003Y0020152D01*
X0051552Y0020152D01*
X0051102Y0019701D01*
X0051102Y0018800D01*
X0052903Y0019701D02*
X0052903Y0021052D01*
X0051102Y0021052D01*
X0054048Y0020602D02*
X0054048Y0018800D01*
X0054499Y0018350D01*
X0055850Y0018350D01*
X0055850Y0021052D01*
X0054499Y0021052D01*
X0054048Y0020602D01*
X0061102Y0021052D02*
X0062003Y0020602D01*
X0062903Y0019701D01*
X0061552Y0019701D01*
X0061102Y0019251D01*
X0061102Y0018800D01*
X0061552Y0018350D01*
X0062453Y0018350D01*
X0062903Y0018800D01*
X0062903Y0019701D01*
X0064048Y0018800D02*
X0064048Y0020602D01*
X0064499Y0021052D01*
X0065850Y0021052D01*
X0065850Y0018350D01*
X0064499Y0018350D01*
X0064048Y0018800D01*
X0070102Y0020602D02*
X0071903Y0018800D01*
X0071903Y0018350D01*
X0073048Y0018800D02*
X0073048Y0020602D01*
X0073499Y0021052D01*
X0074850Y0021052D01*
X0074850Y0018350D01*
X0073499Y0018350D01*
X0073048Y0018800D01*
X0071903Y0021052D02*
X0070102Y0021052D01*
X0070102Y0020602D01*
X0078655Y0020602D02*
X0079106Y0021052D01*
X0080007Y0021052D01*
X0080457Y0020602D01*
X0080457Y0018800D01*
X0080007Y0018350D01*
X0079106Y0018350D01*
X0078655Y0018800D01*
X0081602Y0018800D02*
X0082052Y0018350D01*
X0082953Y0018350D01*
X0083403Y0018800D01*
X0083403Y0020602D01*
X0082953Y0021052D01*
X0082052Y0021052D01*
X0081602Y0020602D01*
X0084548Y0021052D02*
X0084548Y0019251D01*
X0085449Y0018350D01*
X0086350Y0019251D01*
X0086350Y0021052D01*
X0089638Y0021052D02*
X0089638Y0018350D01*
X0091439Y0021052D01*
X0091439Y0018350D01*
X0092503Y0018350D02*
X0093403Y0018350D01*
X0092953Y0018350D02*
X0092953Y0021052D01*
X0093403Y0021052D02*
X0092503Y0021052D01*
X0094548Y0021052D02*
X0094548Y0019251D01*
X0095449Y0018350D01*
X0096350Y0019251D01*
X0096350Y0021052D01*
X0086850Y0039638D02*
X0084148Y0039638D01*
X0084148Y0041439D02*
X0086850Y0039638D01*
X0086850Y0041439D02*
X0084148Y0041439D01*
X0084148Y0042503D02*
X0084148Y0043403D01*
X0084148Y0042953D02*
X0086850Y0042953D01*
X0086850Y0043403D02*
X0086850Y0042503D01*
X0085949Y0044548D02*
X0084148Y0044548D01*
X0085949Y0044548D02*
X0086850Y0045449D01*
X0085949Y0046350D01*
X0084148Y0046350D01*
X0080552Y0046263D02*
X0080552Y0045429D01*
X0080135Y0045012D01*
X0080135Y0043918D02*
X0080552Y0043501D01*
X0080552Y0042667D01*
X0080135Y0042250D01*
X0080135Y0043918D02*
X0079718Y0043918D01*
X0078050Y0042250D01*
X0078050Y0043918D01*
X0078050Y0045012D02*
X0079718Y0046680D01*
X0080135Y0046680D01*
X0080552Y0046263D01*
X0079718Y0047775D02*
X0079718Y0049026D01*
X0079301Y0049443D01*
X0078050Y0049443D01*
X0078050Y0050537D02*
X0080552Y0050537D01*
X0080552Y0052205D01*
X0079301Y0051371D02*
X0079301Y0050537D01*
X0079918Y0053750D02*
X0080752Y0054584D01*
X0078250Y0054584D01*
X0078250Y0053750D02*
X0078250Y0055418D01*
X0078667Y0056512D02*
X0078250Y0056929D01*
X0078250Y0058180D01*
X0079918Y0058180D01*
X0079501Y0059275D02*
X0079501Y0060109D01*
X0080752Y0059275D02*
X0080752Y0060943D01*
X0080752Y0059275D02*
X0078250Y0059275D01*
X0078667Y0056512D02*
X0079918Y0056512D01*
X0084148Y0055850D02*
X0084148Y0054048D01*
X0084148Y0054949D02*
X0086850Y0054949D01*
X0086850Y0052903D02*
X0084148Y0051102D01*
X0084148Y0052903D02*
X0086850Y0051102D01*
X0079718Y0047775D02*
X0078050Y0047775D01*
X0078050Y0046680D02*
X0078050Y0045012D01*
X0073350Y0044685D02*
X0073350Y0043017D01*
X0072933Y0042600D01*
X0072099Y0042600D01*
X0071682Y0043017D01*
X0070588Y0043017D02*
X0070171Y0042600D01*
X0069337Y0042600D01*
X0068920Y0043017D01*
X0068920Y0043851D01*
X0069337Y0044268D01*
X0069754Y0044268D01*
X0070588Y0043851D01*
X0070588Y0045102D01*
X0068920Y0045102D01*
X0071682Y0044685D02*
X0072099Y0045102D01*
X0072933Y0045102D01*
X0073350Y0044685D01*
X0072858Y0050900D02*
X0072024Y0050900D01*
X0071607Y0051317D01*
X0070512Y0051317D02*
X0070095Y0050900D01*
X0069261Y0050900D01*
X0068844Y0051317D01*
X0068844Y0051734D01*
X0069261Y0052151D01*
X0069678Y0052151D01*
X0069261Y0052151D02*
X0068844Y0052568D01*
X0068844Y0052985D01*
X0069261Y0053402D01*
X0070095Y0053402D01*
X0070512Y0052985D01*
X0071607Y0052985D02*
X0072024Y0053402D01*
X0072858Y0053402D01*
X0073275Y0052985D01*
X0073275Y0051317D01*
X0072858Y0050900D01*
X0073158Y0059400D02*
X0072324Y0059400D01*
X0071907Y0059817D01*
X0073158Y0059400D02*
X0073575Y0059817D01*
X0073575Y0061485D01*
X0073158Y0061902D01*
X0072324Y0061902D01*
X0071907Y0061485D01*
X0070812Y0061485D02*
X0070395Y0061902D01*
X0069561Y0061902D01*
X0069144Y0061485D01*
X0069144Y0061068D01*
X0070812Y0059400D01*
X0069144Y0059400D01*
X0077850Y0063050D02*
X0077850Y0064718D01*
X0077850Y0063884D02*
X0080352Y0063884D01*
X0079518Y0063050D01*
X0079518Y0065812D02*
X0078267Y0065812D01*
X0077850Y0066229D01*
X0077850Y0067480D01*
X0079518Y0067480D01*
X0079101Y0068575D02*
X0079101Y0069409D01*
X0077850Y0068575D02*
X0080352Y0068575D01*
X0080352Y0070243D01*
X0084148Y0069606D02*
X0084148Y0070957D01*
X0086850Y0070957D01*
X0086850Y0069606D01*
X0086400Y0069155D01*
X0084598Y0069155D01*
X0084148Y0069606D01*
X0084148Y0072102D02*
X0086850Y0072102D01*
X0084148Y0073903D01*
X0086850Y0073903D01*
X0086400Y0075048D02*
X0085499Y0075048D01*
X0085499Y0075949D01*
X0086400Y0075048D02*
X0086850Y0075499D01*
X0086850Y0076400D01*
X0086400Y0076850D01*
X0084598Y0076850D01*
X0084148Y0076400D01*
X0084148Y0075499D01*
X0084598Y0075048D01*
X0084148Y0065850D02*
X0084148Y0064499D01*
X0084598Y0064048D01*
X0085499Y0064048D01*
X0085949Y0064499D01*
X0085949Y0065850D01*
X0085949Y0064949D02*
X0086850Y0064048D01*
X0086850Y0062903D02*
X0084148Y0061102D01*
X0084148Y0062903D02*
X0086850Y0061102D01*
X0086850Y0065850D02*
X0084148Y0065850D01*
X0073275Y0069517D02*
X0072858Y0069100D01*
X0072024Y0069100D01*
X0071607Y0069517D01*
X0070512Y0069100D02*
X0068844Y0069100D01*
X0069678Y0069100D02*
X0069678Y0071602D01*
X0070512Y0070768D01*
X0071607Y0071185D02*
X0072024Y0071602D01*
X0072858Y0071602D01*
X0073275Y0071185D01*
X0073275Y0069517D01*
X0072401Y0087348D02*
X0071050Y0087348D01*
X0071050Y0090050D01*
X0072401Y0090050D01*
X0072852Y0089600D01*
X0072852Y0087798D01*
X0072401Y0087348D01*
X0073997Y0087798D02*
X0074447Y0087348D01*
X0075348Y0087348D01*
X0075798Y0087798D01*
X0075798Y0088248D01*
X0075348Y0088699D01*
X0074447Y0088699D01*
X0073997Y0088248D01*
X0073997Y0087798D01*
X0074447Y0088699D02*
X0073997Y0089149D01*
X0073997Y0089600D01*
X0074447Y0090050D01*
X0075348Y0090050D01*
X0075798Y0089600D01*
X0075798Y0089149D01*
X0075348Y0088699D01*
X0079350Y0089400D02*
X0079350Y0087598D01*
X0079800Y0087148D01*
X0080701Y0087148D01*
X0081152Y0087598D01*
X0081152Y0088499D02*
X0080251Y0088499D01*
X0081152Y0088499D02*
X0081152Y0089400D01*
X0080701Y0089850D01*
X0079800Y0089850D01*
X0079350Y0089400D01*
X0082297Y0089850D02*
X0082297Y0087148D01*
X0084098Y0089850D01*
X0084098Y0087148D01*
X0085243Y0087148D02*
X0086594Y0087148D01*
X0087045Y0087598D01*
X0087045Y0089400D01*
X0086594Y0089850D01*
X0085243Y0089850D01*
X0085243Y0087148D01*
X0089350Y0087598D02*
X0089350Y0089400D01*
X0089800Y0089850D01*
X0090701Y0089850D01*
X0091152Y0089400D01*
X0091152Y0088499D01*
X0090251Y0088499D01*
X0091152Y0087598D02*
X0090701Y0087148D01*
X0089800Y0087148D01*
X0089350Y0087598D01*
X0092297Y0087148D02*
X0094098Y0089850D01*
X0094098Y0087148D01*
X0095243Y0087148D02*
X0096594Y0087148D01*
X0097045Y0087598D01*
X0097045Y0089400D01*
X0096594Y0089850D01*
X0095243Y0089850D01*
X0095243Y0087148D01*
X0092297Y0087148D02*
X0092297Y0089850D01*
X0065798Y0088699D02*
X0063997Y0088699D01*
X0065348Y0087348D01*
X0065348Y0090050D01*
X0062852Y0089600D02*
X0062852Y0087798D01*
X0062401Y0087348D01*
X0061050Y0087348D01*
X0061050Y0090050D01*
X0062401Y0090050D01*
X0062852Y0089600D01*
X0055350Y0090052D02*
X0055350Y0087350D01*
X0053999Y0087350D01*
X0053548Y0087800D01*
X0053548Y0089602D01*
X0053999Y0090052D01*
X0055350Y0090052D01*
X0052403Y0089602D02*
X0051953Y0090052D01*
X0051052Y0090052D01*
X0050602Y0089602D01*
X0050602Y0089152D01*
X0051052Y0088701D01*
X0050602Y0088251D01*
X0050602Y0087800D01*
X0051052Y0087350D01*
X0051953Y0087350D01*
X0052403Y0087800D01*
X0051503Y0088701D02*
X0051052Y0088701D01*
X0044850Y0087350D02*
X0043499Y0087350D01*
X0043048Y0087800D01*
X0043048Y0089602D01*
X0043499Y0090052D01*
X0044850Y0090052D01*
X0044850Y0087350D01*
X0041903Y0087350D02*
X0040102Y0087350D01*
X0041003Y0087350D02*
X0041003Y0090052D01*
X0041903Y0089152D01*
X0035350Y0090052D02*
X0035350Y0087350D01*
X0033999Y0087350D01*
X0033548Y0087800D01*
X0033548Y0089602D01*
X0033999Y0090052D01*
X0035350Y0090052D01*
X0032403Y0089602D02*
X0031953Y0090052D01*
X0031052Y0090052D01*
X0030602Y0089602D01*
X0030602Y0089152D01*
X0032403Y0087350D01*
X0030602Y0087350D01*
X0025350Y0087350D02*
X0025350Y0090052D01*
X0023999Y0090052D01*
X0023548Y0089602D01*
X0023548Y0088701D01*
X0023999Y0088251D01*
X0025350Y0088251D01*
X0024449Y0088251D02*
X0023548Y0087350D01*
X0022403Y0087350D02*
X0020602Y0090052D01*
X0022403Y0090052D02*
X0020602Y0087350D01*
X0015850Y0090052D02*
X0014048Y0090052D01*
X0014949Y0090052D02*
X0014949Y0087350D01*
X0012903Y0087350D02*
X0011102Y0090052D01*
X0012903Y0090052D02*
X0011102Y0087350D01*
X0027137Y0070002D02*
X0026720Y0069585D01*
X0026720Y0069168D01*
X0027137Y0068751D01*
X0026720Y0068334D01*
X0026720Y0067917D01*
X0027137Y0067500D01*
X0027971Y0067500D01*
X0028388Y0067917D01*
X0029482Y0067500D02*
X0030316Y0068334D01*
X0029899Y0068334D02*
X0031150Y0068334D01*
X0031150Y0067500D02*
X0031150Y0070002D01*
X0029899Y0070002D01*
X0029482Y0069585D01*
X0029482Y0068751D01*
X0029899Y0068334D01*
X0028388Y0069585D02*
X0027971Y0070002D01*
X0027137Y0070002D01*
X0027137Y0068751D02*
X0027554Y0068751D01*
X0037620Y0069168D02*
X0037620Y0069585D01*
X0038037Y0070002D01*
X0038871Y0070002D01*
X0039288Y0069585D01*
X0040382Y0069585D02*
X0040382Y0068751D01*
X0040799Y0068334D01*
X0042050Y0068334D01*
X0042050Y0067500D02*
X0042050Y0070002D01*
X0040799Y0070002D01*
X0040382Y0069585D01*
X0041216Y0068334D02*
X0040382Y0067500D01*
X0039288Y0067500D02*
X0037620Y0069168D01*
X0037620Y0067500D02*
X0039288Y0067500D01*
X0049244Y0045952D02*
X0050912Y0044284D01*
X0050495Y0044701D02*
X0049244Y0043450D01*
X0050912Y0043450D02*
X0050912Y0045952D01*
X0052007Y0045535D02*
X0053675Y0043867D01*
X0053258Y0043450D01*
X0052424Y0043450D01*
X0052007Y0043867D01*
X0052007Y0045535D01*
X0052424Y0045952D01*
X0053258Y0045952D01*
X0053675Y0045535D01*
X0053675Y0043867D01*
X0054769Y0043867D02*
X0055186Y0043450D01*
X0056020Y0043450D01*
X0056437Y0043867D01*
X0054769Y0045535D01*
X0054769Y0043867D01*
X0056437Y0043867D02*
X0056437Y0045535D01*
X0056020Y0045952D01*
X0055186Y0045952D01*
X0054769Y0045535D01*
X0057531Y0043450D02*
X0059199Y0043450D01*
X0058365Y0043450D02*
X0058365Y0045952D01*
X0059199Y0045118D01*
X0055875Y0036702D02*
X0054624Y0036702D01*
X0054207Y0036285D01*
X0054207Y0035451D01*
X0054624Y0035034D01*
X0055875Y0035034D01*
X0055875Y0034200D02*
X0055875Y0036702D01*
X0055041Y0035034D02*
X0054207Y0034200D01*
X0053112Y0034200D02*
X0051444Y0034200D01*
X0052278Y0034200D02*
X0052278Y0036702D01*
X0053112Y0035868D01*
X0044899Y0035850D02*
X0043231Y0035850D01*
X0044065Y0035850D02*
X0044065Y0038352D01*
X0044899Y0037518D01*
X0042137Y0037935D02*
X0042137Y0036267D01*
X0040469Y0037935D01*
X0040469Y0036267D01*
X0040886Y0035850D01*
X0041720Y0035850D01*
X0042137Y0036267D01*
X0042137Y0037935D02*
X0041720Y0038352D01*
X0040886Y0038352D01*
X0040469Y0037935D01*
X0039375Y0037518D02*
X0039375Y0036267D01*
X0038958Y0035850D01*
X0037707Y0035850D01*
X0037707Y0037518D01*
X0036612Y0037101D02*
X0035778Y0037101D01*
X0036612Y0038352D02*
X0034944Y0038352D01*
X0036612Y0038352D02*
X0036612Y0035850D01*
X0064444Y0036352D02*
X0066112Y0036352D01*
X0066112Y0033850D01*
X0067207Y0033850D02*
X0067207Y0035101D01*
X0067624Y0035518D01*
X0068875Y0035518D01*
X0068875Y0033850D01*
X0069969Y0034267D02*
X0070386Y0033850D01*
X0071220Y0033850D01*
X0071637Y0034267D01*
X0069969Y0035935D01*
X0069969Y0034267D01*
X0071637Y0034267D02*
X0071637Y0035935D01*
X0071220Y0036352D01*
X0070386Y0036352D01*
X0069969Y0035935D01*
X0072731Y0035935D02*
X0072731Y0034267D01*
X0073148Y0033850D01*
X0073982Y0033850D01*
X0074399Y0034267D01*
X0072731Y0035935D01*
X0073148Y0036352D01*
X0073982Y0036352D01*
X0074399Y0035935D01*
X0074399Y0034267D01*
X0075494Y0033850D02*
X0077162Y0033850D01*
X0076328Y0033850D02*
X0076328Y0036352D01*
X0077162Y0035518D01*
X0066112Y0035101D02*
X0065278Y0035101D01*
D13*
X0070419Y0037238D02*
X0072781Y0037238D01*
X0072781Y0041962D02*
X0070419Y0041962D01*
X0070319Y0045938D02*
X0072681Y0045938D01*
X0072681Y0050662D02*
X0070319Y0050662D01*
X0070419Y0054238D02*
X0072781Y0054238D01*
X0072781Y0058962D02*
X0070419Y0058962D01*
X0070319Y0062738D02*
X0072681Y0062738D01*
X0072681Y0067462D02*
X0070319Y0067462D01*
X0055781Y0042362D02*
X0053419Y0042362D01*
X0053419Y0037638D02*
X0055781Y0037638D01*
X0042962Y0043419D02*
X0042962Y0045781D01*
X0038238Y0045781D02*
X0038238Y0043419D01*
X0031962Y0043919D02*
X0031962Y0046281D01*
X0027238Y0046281D02*
X0027238Y0043919D01*
X0021962Y0043919D02*
X0021962Y0046281D01*
X0017238Y0046281D02*
X0017238Y0043919D01*
X0017338Y0060319D02*
X0017338Y0062681D01*
X0022062Y0062681D02*
X0022062Y0060319D01*
X0027238Y0060419D02*
X0027238Y0062781D01*
X0031962Y0062781D02*
X0031962Y0060419D01*
X0037938Y0060319D02*
X0037938Y0062681D01*
X0042662Y0062681D02*
X0042662Y0060319D01*
D14*
X0049900Y0057491D02*
X0049900Y0054109D01*
X0053843Y0058591D02*
X0055957Y0058591D01*
X0059900Y0057491D02*
X0059900Y0054109D01*
D15*
X0061200Y0051800D03*
M02*
