G75*
%MOIN*%
%OFA0B0*%
%FSLAX25Y25*%
%IPPOS*%
%LPD*%
%AMOC8*
5,1,8,0,0,1.08239X$1,22.5*
%
%ADD10C,0.00000*%
%ADD11C,0.00500*%
%ADD12C,0.00800*%
D10*
X0007600Y0009100D02*
X0098301Y0009100D01*
X0098301Y0099561D01*
X0007600Y0099561D01*
X0007600Y0009100D01*
D11*
X0009850Y0018350D02*
X0009850Y0021052D01*
X0011201Y0021052D01*
X0011652Y0020602D01*
X0011652Y0019701D01*
X0011201Y0019251D01*
X0009850Y0019251D01*
X0010751Y0019251D02*
X0011652Y0018350D01*
X0012797Y0018800D02*
X0013247Y0018350D01*
X0014148Y0018350D01*
X0014598Y0018800D01*
X0014598Y0019251D01*
X0014148Y0019701D01*
X0013247Y0019701D01*
X0012797Y0020152D01*
X0012797Y0020602D01*
X0013247Y0021052D01*
X0014148Y0021052D01*
X0014598Y0020602D01*
X0015743Y0021052D02*
X0017545Y0021052D01*
X0016644Y0021052D02*
X0016644Y0018350D01*
X0020850Y0018350D02*
X0020850Y0020152D01*
X0021751Y0021052D01*
X0022652Y0020152D01*
X0022652Y0018350D01*
X0023797Y0018800D02*
X0025598Y0020602D01*
X0025598Y0018800D01*
X0025148Y0018350D01*
X0024247Y0018350D01*
X0023797Y0018800D01*
X0023797Y0020602D01*
X0024247Y0021052D01*
X0025148Y0021052D01*
X0025598Y0020602D01*
X0022652Y0019701D02*
X0020850Y0019701D01*
X0030850Y0019701D02*
X0031751Y0019701D01*
X0030850Y0018350D02*
X0032652Y0018350D01*
X0033797Y0018350D02*
X0033797Y0021052D01*
X0035598Y0018350D01*
X0035598Y0021052D01*
X0032652Y0021052D02*
X0030850Y0021052D01*
X0030850Y0018350D01*
X0040850Y0018350D02*
X0042201Y0018350D01*
X0042652Y0018800D01*
X0042652Y0020602D01*
X0042201Y0021052D01*
X0040850Y0021052D01*
X0040850Y0018350D01*
X0043797Y0018800D02*
X0044247Y0018350D01*
X0045148Y0018350D01*
X0045598Y0018800D01*
X0045598Y0020602D01*
X0043797Y0018800D01*
X0043797Y0020602D01*
X0044247Y0021052D01*
X0045148Y0021052D01*
X0045598Y0020602D01*
X0050850Y0021052D02*
X0050850Y0018350D01*
X0052201Y0018350D01*
X0052652Y0018800D01*
X0052652Y0020602D01*
X0052201Y0021052D01*
X0050850Y0021052D01*
X0053797Y0021052D02*
X0053797Y0019701D01*
X0054697Y0020152D01*
X0055148Y0020152D01*
X0055598Y0019701D01*
X0055598Y0018800D01*
X0055148Y0018350D01*
X0054247Y0018350D01*
X0053797Y0018800D01*
X0053797Y0021052D02*
X0055598Y0021052D01*
X0060850Y0021052D02*
X0060850Y0018350D01*
X0062201Y0018350D01*
X0062652Y0018800D01*
X0062652Y0020602D01*
X0062201Y0021052D01*
X0060850Y0021052D01*
X0063797Y0019701D02*
X0065148Y0019701D01*
X0065598Y0019251D01*
X0065598Y0018800D01*
X0065148Y0018350D01*
X0064247Y0018350D01*
X0063797Y0018800D01*
X0063797Y0019701D01*
X0064697Y0020602D01*
X0065598Y0021052D01*
X0070850Y0021052D02*
X0070850Y0018350D01*
X0072201Y0018350D01*
X0072652Y0018800D01*
X0072652Y0020602D01*
X0072201Y0021052D01*
X0070850Y0021052D01*
X0073797Y0021052D02*
X0075598Y0021052D01*
X0075598Y0020602D01*
X0073797Y0018800D01*
X0073797Y0018350D01*
X0078850Y0019251D02*
X0079751Y0018350D01*
X0080652Y0019251D01*
X0080652Y0021052D01*
X0081797Y0020602D02*
X0081797Y0018800D01*
X0082247Y0018350D01*
X0083148Y0018350D01*
X0083598Y0018800D01*
X0084743Y0018800D02*
X0085193Y0018350D01*
X0086094Y0018350D01*
X0086545Y0018800D01*
X0086545Y0020602D02*
X0086094Y0021052D01*
X0085193Y0021052D01*
X0084743Y0020602D01*
X0084743Y0018800D01*
X0083598Y0020602D02*
X0083148Y0021052D01*
X0082247Y0021052D01*
X0081797Y0020602D01*
X0078850Y0021052D02*
X0078850Y0019251D01*
X0089850Y0019251D02*
X0090751Y0018350D01*
X0091652Y0019251D01*
X0091652Y0021052D01*
X0092797Y0021052D02*
X0093697Y0021052D01*
X0093247Y0021052D02*
X0093247Y0018350D01*
X0092797Y0018350D02*
X0093697Y0018350D01*
X0094761Y0018350D02*
X0094761Y0021052D01*
X0096562Y0018350D01*
X0096562Y0021052D01*
X0089850Y0021052D02*
X0089850Y0019251D01*
X0085449Y0039350D02*
X0083648Y0039350D01*
X0085449Y0039350D02*
X0086350Y0040251D01*
X0085449Y0041152D01*
X0083648Y0041152D01*
X0083648Y0042297D02*
X0083648Y0043197D01*
X0083648Y0042747D02*
X0086350Y0042747D01*
X0086350Y0042297D02*
X0086350Y0043197D01*
X0086350Y0044261D02*
X0083648Y0044261D01*
X0086350Y0046062D01*
X0083648Y0046062D01*
X0083648Y0050850D02*
X0083648Y0052652D01*
X0083648Y0051751D02*
X0086350Y0051751D01*
X0086350Y0053797D02*
X0083648Y0055598D01*
X0083648Y0053797D02*
X0086350Y0055598D01*
X0086350Y0059350D02*
X0083648Y0059350D01*
X0083648Y0060701D01*
X0084098Y0061152D01*
X0084999Y0061152D01*
X0085449Y0060701D01*
X0085449Y0059350D01*
X0085449Y0060251D02*
X0086350Y0061152D01*
X0086350Y0062297D02*
X0083648Y0064098D01*
X0083648Y0062297D02*
X0086350Y0064098D01*
X0085900Y0068350D02*
X0084098Y0068350D01*
X0083648Y0068800D01*
X0083648Y0069701D01*
X0084098Y0070152D01*
X0084999Y0070152D02*
X0084999Y0069251D01*
X0084999Y0070152D02*
X0085900Y0070152D01*
X0086350Y0069701D01*
X0086350Y0068800D01*
X0085900Y0068350D01*
X0086350Y0071297D02*
X0083648Y0071297D01*
X0086350Y0073098D01*
X0083648Y0073098D01*
X0083648Y0074243D02*
X0083648Y0075594D01*
X0084098Y0076045D01*
X0085900Y0076045D01*
X0086350Y0075594D01*
X0086350Y0074243D01*
X0083648Y0074243D01*
X0083903Y0087148D02*
X0082102Y0089850D01*
X0082102Y0087148D01*
X0080957Y0087148D02*
X0079606Y0087148D01*
X0079155Y0087598D01*
X0079155Y0089400D01*
X0079606Y0089850D01*
X0080957Y0089850D01*
X0080957Y0087148D01*
X0083903Y0087148D02*
X0083903Y0089850D01*
X0085048Y0089400D02*
X0085048Y0088499D01*
X0085949Y0088499D01*
X0085048Y0089400D02*
X0085499Y0089850D01*
X0086400Y0089850D01*
X0086850Y0089400D01*
X0086850Y0087598D01*
X0086400Y0087148D01*
X0085499Y0087148D01*
X0085048Y0087598D01*
X0089155Y0087598D02*
X0089606Y0087148D01*
X0090957Y0087148D01*
X0090957Y0089850D01*
X0089606Y0089850D01*
X0089155Y0089400D01*
X0089155Y0087598D01*
X0092102Y0087148D02*
X0092102Y0089850D01*
X0093903Y0087148D01*
X0093903Y0089850D01*
X0095048Y0089400D02*
X0095048Y0088499D01*
X0095949Y0088499D01*
X0095048Y0089400D02*
X0095499Y0089850D01*
X0096400Y0089850D01*
X0096850Y0089400D01*
X0096850Y0087598D01*
X0096400Y0087148D01*
X0095499Y0087148D01*
X0095048Y0087598D01*
X0074850Y0087148D02*
X0073499Y0087148D01*
X0073048Y0087598D01*
X0073048Y0089400D01*
X0073499Y0089850D01*
X0074850Y0089850D01*
X0074850Y0087148D01*
X0071903Y0087598D02*
X0071903Y0088048D01*
X0071453Y0088499D01*
X0070552Y0088499D01*
X0070102Y0088949D01*
X0070102Y0089400D01*
X0070552Y0089850D01*
X0071453Y0089850D01*
X0071903Y0089400D01*
X0071903Y0088949D01*
X0071453Y0088499D01*
X0070552Y0088499D02*
X0070102Y0088048D01*
X0070102Y0087598D01*
X0070552Y0087148D01*
X0071453Y0087148D01*
X0071903Y0087598D01*
X0064850Y0087148D02*
X0063499Y0087148D01*
X0063048Y0087598D01*
X0063048Y0089400D01*
X0063499Y0089850D01*
X0064850Y0089850D01*
X0064850Y0087148D01*
X0061903Y0088499D02*
X0060102Y0088499D01*
X0060552Y0089850D02*
X0060552Y0087148D01*
X0061903Y0088499D01*
X0054850Y0087148D02*
X0054850Y0089850D01*
X0053499Y0089850D01*
X0053048Y0089400D01*
X0053048Y0087598D01*
X0053499Y0087148D01*
X0054850Y0087148D01*
X0051903Y0087598D02*
X0051453Y0087148D01*
X0050552Y0087148D01*
X0050102Y0087598D01*
X0050102Y0088048D01*
X0050552Y0088499D01*
X0050102Y0088949D01*
X0050102Y0089400D01*
X0050552Y0089850D01*
X0051453Y0089850D01*
X0051903Y0089400D01*
X0051003Y0088499D02*
X0050552Y0088499D01*
X0044850Y0087148D02*
X0044850Y0089850D01*
X0043499Y0089850D01*
X0043048Y0089400D01*
X0043048Y0087598D01*
X0043499Y0087148D01*
X0044850Y0087148D01*
X0041903Y0088048D02*
X0041003Y0087148D01*
X0041003Y0089850D01*
X0041903Y0089850D02*
X0040102Y0089850D01*
X0034850Y0089850D02*
X0034850Y0087148D01*
X0033499Y0087148D01*
X0033048Y0087598D01*
X0033048Y0089400D01*
X0033499Y0089850D01*
X0034850Y0089850D01*
X0031903Y0089850D02*
X0030102Y0088048D01*
X0030102Y0087598D01*
X0030552Y0087148D01*
X0031453Y0087148D01*
X0031903Y0087598D01*
X0031903Y0089850D02*
X0030102Y0089850D01*
X0024850Y0089850D02*
X0024850Y0087148D01*
X0023499Y0087148D01*
X0023048Y0087598D01*
X0023048Y0088499D01*
X0023499Y0088949D01*
X0024850Y0088949D01*
X0023949Y0088949D02*
X0023048Y0089850D01*
X0021903Y0089850D02*
X0020102Y0087148D01*
X0021903Y0087148D02*
X0020102Y0089850D01*
X0014850Y0087148D02*
X0013048Y0087148D01*
X0013949Y0087148D02*
X0013949Y0089850D01*
X0011903Y0089850D02*
X0010102Y0087148D01*
X0011903Y0087148D02*
X0010102Y0089850D01*
D12*
X0087600Y0075600D02*
X0087600Y0070600D01*
X0090100Y0068100D01*
X0087600Y0065600D01*
X0087600Y0060600D01*
X0090100Y0058100D01*
X0087600Y0055600D01*
X0087600Y0050600D01*
X0090100Y0048100D01*
X0087600Y0045600D01*
X0087600Y0040600D01*
X0090100Y0038100D01*
X0095100Y0038100D01*
X0097600Y0040600D01*
X0097600Y0045600D01*
X0095100Y0048100D01*
X0097600Y0050600D01*
X0097600Y0055600D01*
X0095100Y0058100D01*
X0097600Y0060600D01*
X0097600Y0065600D01*
X0095100Y0068100D01*
X0097600Y0070600D01*
X0097600Y0075600D01*
X0095100Y0078100D01*
X0090100Y0078100D01*
X0087600Y0075600D01*
M02*
