G75*
%MOIN*%
%OFA0B0*%
%FSLAX25Y25*%
%IPPOS*%
%LPD*%
%AMOC8*
5,1,8,0,0,1.08239X$1,22.5*
%
%ADD10C,0.00000*%
%ADD11OC8,0.07000*%
%ADD12R,0.03150X0.04724*%
%ADD13R,0.02165X0.04724*%
%ADD14C,0.05356*%
%ADD15R,0.04724X0.03150*%
%ADD16R,0.07400X0.07400*%
%ADD17C,0.07400*%
%ADD18C,0.01200*%
%ADD19C,0.01000*%
%ADD20C,0.04400*%
D10*
X0007600Y0009100D02*
X0098301Y0009100D01*
X0098301Y0099561D01*
X0007600Y0099561D01*
X0007600Y0009100D01*
D11*
X0013100Y0014100D03*
X0023100Y0014100D03*
X0033100Y0014100D03*
X0043100Y0014100D03*
X0053100Y0014100D03*
X0063100Y0014100D03*
X0073100Y0014100D03*
X0083100Y0014100D03*
X0093100Y0014100D03*
X0093100Y0094100D03*
X0083100Y0094100D03*
X0073100Y0094100D03*
X0063100Y0094100D03*
X0053100Y0094100D03*
X0043100Y0094100D03*
X0033100Y0094100D03*
X0023100Y0094100D03*
X0013100Y0094100D03*
D12*
X0051057Y0040000D03*
X0058143Y0040000D03*
X0068057Y0039600D03*
X0075143Y0039600D03*
X0075043Y0048300D03*
X0067957Y0048300D03*
X0068057Y0056600D03*
X0075143Y0056600D03*
X0075043Y0065100D03*
X0067957Y0065100D03*
D13*
X0058640Y0060919D03*
X0051160Y0060919D03*
X0051160Y0050681D03*
X0054900Y0050681D03*
X0058640Y0050681D03*
D14*
X0056361Y0029525D02*
X0056361Y0024169D01*
X0064235Y0024169D02*
X0064235Y0029525D01*
X0072109Y0029525D02*
X0072109Y0024169D01*
X0079983Y0024169D02*
X0079983Y0029525D01*
X0048487Y0029525D02*
X0048487Y0024169D01*
X0040613Y0024169D02*
X0040613Y0029525D01*
X0032739Y0029525D02*
X0032739Y0024169D01*
X0024865Y0024169D02*
X0024865Y0029525D01*
X0024865Y0079287D02*
X0024865Y0084643D01*
X0032739Y0084643D02*
X0032739Y0079287D01*
X0040613Y0079287D02*
X0040613Y0084643D01*
X0048487Y0084643D02*
X0048487Y0079287D01*
X0056361Y0079287D02*
X0056361Y0084643D01*
X0064235Y0084643D02*
X0064235Y0079287D01*
X0072109Y0079287D02*
X0072109Y0084643D01*
X0079983Y0084643D02*
X0079983Y0079287D01*
D15*
X0040300Y0065043D03*
X0040300Y0057957D03*
X0040600Y0048143D03*
X0040600Y0041057D03*
X0029600Y0041557D03*
X0029600Y0048643D03*
X0029600Y0058057D03*
X0029600Y0065143D03*
X0019700Y0065043D03*
X0019700Y0057957D03*
X0019600Y0048643D03*
X0019600Y0041557D03*
D16*
X0092600Y0043100D03*
D17*
X0092600Y0053100D03*
X0092600Y0063100D03*
X0092600Y0073100D03*
D18*
X0093701Y0073451D02*
X0061618Y0073451D01*
X0062319Y0074152D02*
X0063146Y0073809D01*
X0065325Y0073809D01*
X0067338Y0074643D01*
X0068172Y0075477D01*
X0069006Y0074643D01*
X0071020Y0073809D01*
X0073199Y0073809D01*
X0075212Y0074643D01*
X0076753Y0076184D01*
X0077587Y0078198D01*
X0077587Y0085733D01*
X0076753Y0087746D01*
X0076205Y0088295D01*
X0079400Y0091490D01*
X0079400Y0094961D01*
X0093701Y0094961D01*
X0093701Y0069600D01*
X0091307Y0069600D01*
X0088918Y0068610D01*
X0087090Y0066782D01*
X0086100Y0064393D01*
X0086100Y0061807D01*
X0087090Y0059418D01*
X0088408Y0058100D01*
X0087090Y0056782D01*
X0086100Y0054393D01*
X0086100Y0051807D01*
X0087090Y0049418D01*
X0087328Y0049180D01*
X0087314Y0049174D01*
X0086526Y0048386D01*
X0086100Y0047357D01*
X0086100Y0038843D01*
X0086526Y0037814D01*
X0087314Y0037026D01*
X0088343Y0036600D01*
X0093701Y0036600D01*
X0093701Y0020400D01*
X0090490Y0020400D01*
X0088100Y0018010D01*
X0085710Y0020400D01*
X0083961Y0020400D01*
X0084627Y0021066D01*
X0085461Y0023080D01*
X0085461Y0030615D01*
X0084627Y0032628D01*
X0083086Y0034169D01*
X0081073Y0035003D01*
X0079400Y0035003D01*
X0079400Y0036396D01*
X0079518Y0036681D01*
X0079518Y0042519D01*
X0079092Y0043548D01*
X0078304Y0044336D01*
X0077275Y0044762D01*
X0074605Y0044762D01*
X0074400Y0044967D01*
X0074400Y0052256D01*
X0073898Y0053469D01*
X0072969Y0054398D01*
X0072431Y0054935D01*
X0072431Y0059519D01*
X0072005Y0060548D01*
X0071653Y0060900D01*
X0071905Y0061152D01*
X0072331Y0062181D01*
X0072331Y0068019D01*
X0071905Y0069048D01*
X0071118Y0069836D01*
X0070088Y0070262D01*
X0065825Y0070262D01*
X0064796Y0069836D01*
X0064008Y0069048D01*
X0063947Y0068900D01*
X0049444Y0068900D01*
X0048231Y0068398D01*
X0047302Y0067469D01*
X0045462Y0065629D01*
X0045462Y0067175D01*
X0045036Y0068204D01*
X0044248Y0068992D01*
X0043504Y0069300D01*
X0056756Y0069300D01*
X0057969Y0069802D01*
X0062319Y0074152D01*
X0060420Y0072253D02*
X0093701Y0072253D01*
X0093701Y0071054D02*
X0059221Y0071054D01*
X0058022Y0069856D02*
X0064843Y0069856D01*
X0067345Y0074650D02*
X0069000Y0074650D01*
X0071070Y0069856D02*
X0093701Y0069856D01*
X0089031Y0068657D02*
X0072067Y0068657D01*
X0072331Y0067459D02*
X0087766Y0067459D01*
X0086873Y0066260D02*
X0072331Y0066260D01*
X0072331Y0065062D02*
X0086377Y0065062D01*
X0086100Y0063863D02*
X0072331Y0063863D01*
X0072331Y0062665D02*
X0086100Y0062665D01*
X0086241Y0061466D02*
X0072035Y0061466D01*
X0072122Y0060268D02*
X0086738Y0060268D01*
X0087439Y0059069D02*
X0072431Y0059069D01*
X0072431Y0057870D02*
X0088178Y0057870D01*
X0087044Y0056672D02*
X0072431Y0056672D01*
X0072431Y0055473D02*
X0086548Y0055473D01*
X0086100Y0054275D02*
X0073092Y0054275D01*
X0074060Y0053076D02*
X0086100Y0053076D01*
X0086100Y0051878D02*
X0074400Y0051878D01*
X0074400Y0050679D02*
X0086567Y0050679D01*
X0087064Y0049481D02*
X0074400Y0049481D01*
X0074400Y0048282D02*
X0086483Y0048282D01*
X0086100Y0047084D02*
X0074400Y0047084D01*
X0074400Y0045885D02*
X0086100Y0045885D01*
X0086100Y0044687D02*
X0077457Y0044687D01*
X0079117Y0043488D02*
X0086100Y0043488D01*
X0086100Y0042290D02*
X0079518Y0042290D01*
X0079518Y0041091D02*
X0086100Y0041091D01*
X0086100Y0039893D02*
X0079518Y0039893D01*
X0079518Y0038694D02*
X0086162Y0038694D01*
X0086844Y0037496D02*
X0079518Y0037496D01*
X0079400Y0036297D02*
X0093701Y0036297D01*
X0093701Y0035099D02*
X0079400Y0035099D01*
X0083355Y0033900D02*
X0093701Y0033900D01*
X0093701Y0032702D02*
X0084554Y0032702D01*
X0085093Y0031503D02*
X0093701Y0031503D01*
X0093701Y0030305D02*
X0085461Y0030305D01*
X0085461Y0029106D02*
X0093701Y0029106D01*
X0093701Y0027908D02*
X0085461Y0027908D01*
X0085461Y0026709D02*
X0093701Y0026709D01*
X0093701Y0025511D02*
X0085461Y0025511D01*
X0085461Y0024312D02*
X0093701Y0024312D01*
X0093701Y0023114D02*
X0085461Y0023114D01*
X0084979Y0021915D02*
X0093701Y0021915D01*
X0093701Y0020717D02*
X0084278Y0020717D01*
X0086591Y0019518D02*
X0089609Y0019518D01*
X0088410Y0018320D02*
X0087790Y0018320D01*
X0070769Y0037400D02*
X0055431Y0037400D01*
X0055431Y0042919D01*
X0055005Y0043948D01*
X0054357Y0044597D01*
X0054357Y0046474D01*
X0054616Y0046733D01*
X0054900Y0047418D01*
X0055184Y0046733D01*
X0055971Y0045946D01*
X0057001Y0045519D01*
X0058136Y0045519D01*
X0058861Y0043768D01*
X0060268Y0042361D01*
X0062105Y0041600D01*
X0064095Y0041600D01*
X0065932Y0042361D01*
X0066709Y0043138D01*
X0067800Y0043138D01*
X0067800Y0042944D01*
X0068302Y0041731D01*
X0070769Y0039265D01*
X0070769Y0037400D01*
X0070769Y0037496D02*
X0055431Y0037496D01*
X0055431Y0038694D02*
X0070769Y0038694D01*
X0070140Y0039893D02*
X0055431Y0039893D01*
X0055431Y0041091D02*
X0068942Y0041091D01*
X0068071Y0042290D02*
X0065760Y0042290D01*
X0060440Y0042290D02*
X0055431Y0042290D01*
X0055196Y0043488D02*
X0059141Y0043488D01*
X0058480Y0044687D02*
X0054357Y0044687D01*
X0054357Y0045885D02*
X0056117Y0045885D01*
X0055038Y0047084D02*
X0054761Y0047084D01*
X0047757Y0046680D02*
X0047757Y0044597D01*
X0047108Y0043948D01*
X0046682Y0042919D01*
X0046682Y0037400D01*
X0045467Y0037400D01*
X0045153Y0037713D01*
X0045336Y0037896D01*
X0045762Y0038925D01*
X0045762Y0043188D01*
X0045336Y0044218D01*
X0044548Y0045005D01*
X0043519Y0045431D01*
X0037681Y0045431D01*
X0037538Y0045372D01*
X0034762Y0048148D01*
X0034762Y0050775D01*
X0034336Y0051804D01*
X0033548Y0052592D01*
X0032900Y0052860D01*
X0032900Y0053840D01*
X0033548Y0054108D01*
X0034336Y0054896D01*
X0034762Y0055925D01*
X0034762Y0056600D01*
X0036095Y0056600D01*
X0037932Y0057361D01*
X0039339Y0058768D01*
X0040100Y0060605D01*
X0040100Y0060669D01*
X0043219Y0060669D01*
X0044248Y0061095D01*
X0044800Y0061647D01*
X0044800Y0056944D01*
X0045302Y0055731D01*
X0047323Y0053710D01*
X0047277Y0053601D01*
X0047277Y0047762D01*
X0047703Y0046733D01*
X0047757Y0046680D01*
X0047558Y0047084D02*
X0035826Y0047084D01*
X0034762Y0048282D02*
X0047277Y0048282D01*
X0047277Y0049481D02*
X0034762Y0049481D01*
X0034762Y0050679D02*
X0047277Y0050679D01*
X0047277Y0051878D02*
X0034262Y0051878D01*
X0032900Y0053076D02*
X0047277Y0053076D01*
X0046758Y0054275D02*
X0033715Y0054275D01*
X0034575Y0055473D02*
X0045560Y0055473D01*
X0044912Y0056672D02*
X0036268Y0056672D01*
X0038442Y0057870D02*
X0044800Y0057870D01*
X0044800Y0059069D02*
X0039464Y0059069D01*
X0039960Y0060268D02*
X0044800Y0060268D01*
X0044800Y0061466D02*
X0044620Y0061466D01*
X0045462Y0066260D02*
X0046093Y0066260D01*
X0045345Y0067459D02*
X0047292Y0067459D01*
X0047302Y0067469D02*
X0047302Y0067469D01*
X0048857Y0068657D02*
X0044583Y0068657D01*
X0047757Y0045885D02*
X0037025Y0045885D01*
X0044867Y0044687D02*
X0047757Y0044687D01*
X0046918Y0043488D02*
X0045638Y0043488D01*
X0045762Y0042290D02*
X0046682Y0042290D01*
X0046682Y0041091D02*
X0045762Y0041091D01*
X0045762Y0039893D02*
X0046682Y0039893D01*
X0046682Y0038694D02*
X0045667Y0038694D01*
X0045371Y0037496D02*
X0046682Y0037496D01*
X0075219Y0074650D02*
X0093701Y0074650D01*
X0093701Y0075848D02*
X0076417Y0075848D01*
X0077111Y0077047D02*
X0093701Y0077047D01*
X0093701Y0078245D02*
X0077587Y0078245D01*
X0077587Y0079444D02*
X0093701Y0079444D01*
X0093701Y0080642D02*
X0077587Y0080642D01*
X0077587Y0081841D02*
X0093701Y0081841D01*
X0093701Y0083039D02*
X0077587Y0083039D01*
X0077587Y0084238D02*
X0093701Y0084238D01*
X0093701Y0085436D02*
X0077587Y0085436D01*
X0077214Y0086635D02*
X0093701Y0086635D01*
X0093701Y0087833D02*
X0076666Y0087833D01*
X0076941Y0089032D02*
X0093701Y0089032D01*
X0093701Y0090230D02*
X0078140Y0090230D01*
X0079338Y0091429D02*
X0093701Y0091429D01*
X0093701Y0092627D02*
X0079400Y0092627D01*
X0079400Y0093826D02*
X0093701Y0093826D01*
D19*
X0079983Y0081965D02*
X0079100Y0079600D01*
X0085100Y0073600D01*
X0092100Y0073600D01*
X0092600Y0073100D01*
X0079983Y0081965D02*
X0079100Y0081600D01*
X0079100Y0079600D01*
X0075100Y0075600D01*
X0075100Y0069600D01*
X0051100Y0069600D01*
X0046100Y0064600D01*
X0046100Y0063600D01*
X0041100Y0058600D01*
X0040300Y0057957D01*
X0041100Y0057600D01*
X0041100Y0048600D01*
X0040600Y0048143D01*
X0041100Y0047600D01*
X0046100Y0042600D01*
X0046100Y0038100D01*
X0048100Y0036100D01*
X0054100Y0036100D01*
X0058100Y0039600D01*
X0058143Y0040000D02*
X0058100Y0040043D01*
X0058100Y0042100D01*
X0054900Y0045300D01*
X0054900Y0050681D01*
X0058100Y0051600D02*
X0058640Y0050681D01*
X0059100Y0050600D01*
X0063100Y0046600D01*
X0067100Y0048600D02*
X0067957Y0048300D01*
X0067100Y0048600D02*
X0059100Y0056600D01*
X0056100Y0056600D01*
X0052100Y0060600D01*
X0051160Y0060919D01*
X0048100Y0063600D02*
X0048100Y0057600D01*
X0051100Y0054600D01*
X0051057Y0054600D01*
X0051057Y0053100D01*
X0051160Y0052997D01*
X0051160Y0050681D01*
X0051057Y0053100D02*
X0051057Y0040000D01*
X0059100Y0039600D02*
X0068057Y0039600D01*
X0071100Y0043600D02*
X0075100Y0039600D01*
X0075143Y0039600D01*
X0076100Y0039600D01*
X0076100Y0031600D01*
X0073600Y0034100D01*
X0044100Y0034100D01*
X0040600Y0037600D01*
X0040600Y0041057D01*
X0037187Y0041057D01*
X0029600Y0048643D01*
X0029600Y0058057D01*
X0019800Y0058057D01*
X0019700Y0057957D01*
X0019700Y0048743D01*
X0019600Y0048643D01*
X0019600Y0041557D02*
X0020100Y0040600D01*
X0020100Y0031600D01*
X0024100Y0027600D01*
X0024865Y0026847D01*
X0030100Y0038600D02*
X0041100Y0027600D01*
X0040613Y0026847D01*
X0030100Y0038600D02*
X0030100Y0040600D01*
X0029600Y0041557D01*
X0035100Y0061600D02*
X0038100Y0064600D01*
X0040100Y0064600D01*
X0040300Y0065043D01*
X0034100Y0065600D02*
X0041100Y0072600D01*
X0056100Y0072600D01*
X0065100Y0081600D01*
X0064235Y0081965D01*
X0057100Y0081600D02*
X0056361Y0081965D01*
X0057100Y0081600D02*
X0050100Y0074600D01*
X0032100Y0074600D01*
X0023100Y0065600D01*
X0020100Y0065600D01*
X0019700Y0065043D01*
X0029600Y0065143D02*
X0030100Y0065600D01*
X0034100Y0065600D01*
X0048100Y0063600D02*
X0050100Y0065600D01*
X0067100Y0065600D01*
X0067957Y0065100D01*
X0075043Y0065100D02*
X0075100Y0065600D01*
X0075100Y0069600D01*
X0075043Y0065100D02*
X0075100Y0064600D01*
X0075100Y0056600D01*
X0075143Y0056600D01*
X0075100Y0056600D02*
X0075100Y0048600D01*
X0075043Y0048300D01*
X0071100Y0051600D02*
X0071100Y0043600D01*
X0071100Y0051600D02*
X0068100Y0054600D01*
X0068100Y0056600D01*
X0068057Y0056600D01*
X0063100Y0056600D01*
X0059100Y0060600D01*
X0058640Y0060919D01*
X0057100Y0054600D02*
X0051100Y0054600D01*
X0057100Y0054600D02*
X0058100Y0053600D01*
X0058100Y0051600D01*
X0076100Y0031600D02*
X0080100Y0027600D01*
X0079983Y0026847D01*
D20*
X0063100Y0046600D03*
X0035100Y0061600D03*
M02*
