G75*
%MOIN*%
%OFA0B0*%
%FSLAX25Y25*%
%IPPOS*%
%LPD*%
%AMOC8*
5,1,8,0,0,1.08239X$1,22.5*
%
%ADD10C,0.00000*%
%ADD11OC8,0.07800*%
%ADD12C,0.06156*%
%ADD13R,0.08200X0.08200*%
%ADD14C,0.08200*%
%ADD15C,0.05200*%
D10*
X0007600Y0009100D02*
X0098301Y0009100D01*
X0098301Y0099561D01*
X0007600Y0099561D01*
X0007600Y0009100D01*
D11*
X0013100Y0014100D03*
X0023100Y0014100D03*
X0033100Y0014100D03*
X0043100Y0014100D03*
X0053100Y0014100D03*
X0063100Y0014100D03*
X0073100Y0014100D03*
X0083100Y0014100D03*
X0093100Y0014100D03*
X0093100Y0094100D03*
X0083100Y0094100D03*
X0073100Y0094100D03*
X0063100Y0094100D03*
X0053100Y0094100D03*
X0043100Y0094100D03*
X0033100Y0094100D03*
X0023100Y0094100D03*
X0013100Y0094100D03*
D12*
X0024865Y0084643D02*
X0024865Y0079287D01*
X0032739Y0079287D02*
X0032739Y0084643D01*
X0040613Y0084643D02*
X0040613Y0079287D01*
X0048487Y0079287D02*
X0048487Y0084643D01*
X0056361Y0084643D02*
X0056361Y0079287D01*
X0064235Y0079287D02*
X0064235Y0084643D01*
X0072109Y0084643D02*
X0072109Y0079287D01*
X0079983Y0079287D02*
X0079983Y0084643D01*
X0079983Y0029525D02*
X0079983Y0024169D01*
X0072109Y0024169D02*
X0072109Y0029525D01*
X0064235Y0029525D02*
X0064235Y0024169D01*
X0056361Y0024169D02*
X0056361Y0029525D01*
X0048487Y0029525D02*
X0048487Y0024169D01*
X0040613Y0024169D02*
X0040613Y0029525D01*
X0032739Y0029525D02*
X0032739Y0024169D01*
X0024865Y0024169D02*
X0024865Y0029525D01*
D13*
X0092600Y0043100D03*
D14*
X0092600Y0053100D03*
X0092600Y0063100D03*
X0092600Y0073100D03*
D15*
X0063100Y0046600D03*
X0035100Y0061600D03*
M02*
