G75*
%MOIN*%
%OFA0B0*%
%FSLAX25Y25*%
%IPPOS*%
%LPD*%
%AMOC8*
5,1,8,0,0,1.08239X$1,22.5*
%
%ADD10C,0.00000*%
%ADD11OC8,0.07800*%
%ADD12R,0.03950X0.05524*%
%ADD13R,0.02965X0.05524*%
%ADD14C,0.06156*%
%ADD15R,0.05524X0.03950*%
%ADD16R,0.08200X0.08200*%
%ADD17C,0.08200*%
%ADD18C,0.05200*%
D10*
X0007600Y0009100D02*
X0098301Y0009100D01*
X0098301Y0099561D01*
X0007600Y0099561D01*
X0007600Y0009100D01*
D11*
X0013100Y0014100D03*
X0023100Y0014100D03*
X0033100Y0014100D03*
X0043100Y0014100D03*
X0053100Y0014100D03*
X0063100Y0014100D03*
X0073100Y0014100D03*
X0083100Y0014100D03*
X0093100Y0014100D03*
X0093100Y0094100D03*
X0083100Y0094100D03*
X0073100Y0094100D03*
X0063100Y0094100D03*
X0053100Y0094100D03*
X0043100Y0094100D03*
X0033100Y0094100D03*
X0023100Y0094100D03*
X0013100Y0094100D03*
D12*
X0051057Y0040000D03*
X0058143Y0040000D03*
X0068057Y0039600D03*
X0075143Y0039600D03*
X0075043Y0048300D03*
X0067957Y0048300D03*
X0068057Y0056600D03*
X0075143Y0056600D03*
X0075043Y0065100D03*
X0067957Y0065100D03*
D13*
X0058640Y0060919D03*
X0051160Y0060919D03*
X0051160Y0050681D03*
X0054900Y0050681D03*
X0058640Y0050681D03*
D14*
X0056361Y0029525D02*
X0056361Y0024169D01*
X0064235Y0024169D02*
X0064235Y0029525D01*
X0072109Y0029525D02*
X0072109Y0024169D01*
X0079983Y0024169D02*
X0079983Y0029525D01*
X0048487Y0029525D02*
X0048487Y0024169D01*
X0040613Y0024169D02*
X0040613Y0029525D01*
X0032739Y0029525D02*
X0032739Y0024169D01*
X0024865Y0024169D02*
X0024865Y0029525D01*
X0024865Y0079287D02*
X0024865Y0084643D01*
X0032739Y0084643D02*
X0032739Y0079287D01*
X0040613Y0079287D02*
X0040613Y0084643D01*
X0048487Y0084643D02*
X0048487Y0079287D01*
X0056361Y0079287D02*
X0056361Y0084643D01*
X0064235Y0084643D02*
X0064235Y0079287D01*
X0072109Y0079287D02*
X0072109Y0084643D01*
X0079983Y0084643D02*
X0079983Y0079287D01*
D15*
X0040300Y0065043D03*
X0040300Y0057957D03*
X0040600Y0048143D03*
X0040600Y0041057D03*
X0029600Y0041557D03*
X0029600Y0048643D03*
X0029600Y0058057D03*
X0029600Y0065143D03*
X0019700Y0065043D03*
X0019700Y0057957D03*
X0019600Y0048643D03*
X0019600Y0041557D03*
D16*
X0092600Y0043100D03*
D17*
X0092600Y0053100D03*
X0092600Y0063100D03*
X0092600Y0073100D03*
D18*
X0063100Y0046600D03*
X0035100Y0061600D03*
M02*
